<?xml version="1.0" encoding="UTF-8" standalone="no"?>
<svg
   xmlns:dc="http://purl.org/dc/elements/1.1/"
   xmlns:cc="http://creativecommons.org/ns#"
   xmlns:rdf="http://www.w3.org/1999/02/22-rdf-syntax-ns#"
   xmlns:svg="http://www.w3.org/2000/svg"
   xmlns="http://www.w3.org/2000/svg"
   xmlns:xlink="http://www.w3.org/1999/xlink"
   xmlns:sodipodi="http://sodipodi.sourceforge.net/DTD/sodipodi-0.dtd"
   xmlns:inkscape="http://www.inkscape.org/namespaces/inkscape"
   width="132.004"
   height="132"
   version="1.1"
   id="svg1737"
   sodipodi:docname="instagram.svg"
   inkscape:version="1.0.1 (3bc2e813f5, 2020-09-07)">
  <metadata
     id="metadata1741">
    <rdf:RDF>
      <cc:Work
         rdf:about="">
        <dc:format>image/svg+xml</dc:format>
        <dc:type
           rdf:resource="http://purl.org/dc/dcmitype/StillImage" />
      </cc:Work>
    </rdf:RDF>
  </metadata>
  <sodipodi:namedview
     pagecolor="#ffffff"
     bordercolor="#666666"
     borderopacity="1"
     objecttolerance="10"
     gridtolerance="10"
     guidetolerance="10"
     inkscape:pageopacity="0"
     inkscape:pageshadow="2"
     inkscape:window-width="1853"
     inkscape:window-height="1023"
     id="namedview1739"
     showgrid="false"
     inkscape:zoom="3.2651515"
     inkscape:cx="73.474348"
     inkscape:cy="21.393044"
     inkscape:window-x="67"
     inkscape:window-y="27"
     inkscape:window-maximized="1"
     inkscape:current-layer="svg1737" />
  <defs
     id="defs1729">
    <linearGradient
       id="linearGradient3022">
      <stop
         offset="0"
         stop-color="#3771c8"
         id="stop3016"
         style="stop-color:#00aad4;stop-opacity:1" />
      <stop
         stop-color="#3771c8"
         offset="0.83200502"
         id="stop3018"
         style="stop-color:#00aad4;stop-opacity:1" />
      <stop
         offset="1"
         stop-color="#60f"
         stop-opacity="0"
         id="stop3020"
         style="stop-color:#3ccef2;stop-opacity:1" />
    </linearGradient>
    <linearGradient
       id="b">
      <stop
         offset="0"
         stop-color="#3771c8"
         id="stop3009" />
      <stop
         stop-color="#3771c8"
         offset="0.06594639"
         id="stop3011" />
      <stop
         offset="1"
         stop-color="#60f"
         stop-opacity="0"
         id="stop3013" />
    </linearGradient>
    <linearGradient
       id="b-5">
      <stop
         offset="0"
         stop-color="#3771c8"
         id="stop1711" />
      <stop
         stop-color="#3771c8"
         offset="0.06594639"
         id="stop1713" />
      <stop
         offset="1"
         stop-color="#60f"
         stop-opacity="0"
         id="stop1715" />
    </linearGradient>
    <linearGradient
       id="a">
      <stop
         offset="0"
         stop-color="#fd5"
         id="stop1718" />
      <stop
         offset="0.1"
         stop-color="#fd5"
         id="stop1720"
         style="stop-color:#007c9b;stop-opacity:1" />
      <stop
         offset="0.64000016"
         stop-color="#ff543e"
         id="stop1722"
         style="stop-color:#32a7c4;stop-opacity:1" />
      <stop
         offset="1"
         stop-color="#c837ab"
         id="stop1724"
         style="stop-color:#68bdd2;stop-opacity:1" />
    </linearGradient>
    <radialGradient
       id="c"
       cx="57.087765"
       cy="573.1167"
       r="65"
       xlink:href="#a"
       gradientUnits="userSpaceOnUse"
       gradientTransform="matrix(1.7159669,-0.54864029,0.73730143,2.3060371,-650.27168,-1096.3512)"
       fx="57.087765"
       fy="573.1167" />
    <radialGradient
       id="d"
       cx="98.827019"
       cy="479.1319"
       r="65"
       xlink:href="#b-5"
       gradientUnits="userSpaceOnUse"
       gradientTransform="matrix(-2.2869885,1.2286036,-0.70562167,-1.3134697,561.57498,456.39955)"
       fx="98.827019"
       fy="479.1319" />
    <radialGradient
       inkscape:collect="always"
       xlink:href="#linearGradient3022"
       id="radialGradient3007"
       gradientUnits="userSpaceOnUse"
       gradientTransform="matrix(0.77376421,-0.73260232,1.0197603,1.0770564,-58.915813,5.2017092)"
       cx="46.012173"
       cy="86.675423"
       fx="46.012173"
       fy="86.675423"
       r="65.012222" />
  </defs>
  <path
     fill="url(#c)"
     d="M 65.03,0 C 37.888,0 29.95,0.028 28.407,0.156 22.837,0.619 19.371,1.496 15.595,3.376 12.685,4.821 10.39,6.496 8.125,8.844 4,13.126 1.5,18.394 0.595,24.656 c -0.44,3.04 -0.568,3.66 -0.594,19.188 -0.01,5.176 0,11.988 0,21.125 0,27.12 0.03,35.05 0.16,36.59 0.45,5.42 1.3,8.83 3.1,12.56 3.44,7.14 10.01,12.5 17.75,14.5 2.68,0.69 5.64,1.07 9.44,1.25 1.61,0.07 18.02,0.12 34.44,0.12 16.42,0 32.84,-0.02 34.41,-0.1 4.4,-0.207 6.955,-0.55 9.78,-1.28 7.79,-2.01 14.24,-7.29 17.75,-14.53 1.765,-3.64 2.66,-7.18 3.065,-12.317 0.088,-1.12 0.125,-18.977 0.125,-36.81 0,-17.836 -0.04,-35.66 -0.128,-36.78 -0.41,-5.22 -1.305,-8.73 -3.127,-12.44 -1.495,-3.037 -3.155,-5.305 -5.565,-7.624 C 116.9,4 111.64,1.5 105.372,0.596 102.335,0.157 101.73,0.027 86.19,0 Z"
     id="path1731"
     style="display:inline;fill:url(#radialGradient3007);fill-opacity:1"
     transform="translate(1.004,1)" />
  <path
     fill="#ffffff"
     d="m 66.004,18 c -13.036,0 -14.672,0.057 -19.792,0.29 -5.11,0.234 -8.598,1.043 -11.65,2.23 -3.157,1.226 -5.835,2.866 -8.503,5.535 -2.67,2.668 -4.31,5.346 -5.54,8.502 -1.19,3.053 -2,6.542 -2.23,11.65 C 18.06,51.327 18,52.964 18,66 c 0,13.036 0.058,14.667 0.29,19.787 0.235,5.11 1.044,8.598 2.23,11.65 1.227,3.157 2.867,5.835 5.536,8.503 2.667,2.67 5.345,4.314 8.5,5.54 3.054,1.187 6.543,1.996 11.652,2.23 5.12,0.233 6.755,0.29 19.79,0.29 13.037,0 14.668,-0.057 19.788,-0.29 5.11,-0.234 8.602,-1.043 11.656,-2.23 3.156,-1.226 5.83,-2.87 8.497,-5.54 2.67,-2.668 4.31,-5.346 5.54,-8.502 1.18,-3.053 1.99,-6.542 2.23,-11.65 0.23,-5.12 0.29,-6.752 0.29,-19.788 0,-13.036 -0.06,-14.672 -0.29,-19.792 -0.24,-5.11 -1.05,-8.598 -2.23,-11.65 -1.23,-3.157 -2.87,-5.835 -5.54,-8.503 -2.67,-2.67 -5.34,-4.31 -8.5,-5.535 -3.06,-1.187 -6.55,-1.996 -11.66,-2.23 C 80.659,18.057 79.029,18 65.989,18 Z m -4.306,8.65 c 1.278,-0.002 2.704,0 4.306,0 12.816,0 14.335,0.046 19.396,0.276 4.68,0.214 7.22,0.996 8.912,1.653 2.24,0.87 3.837,1.91 5.516,3.59 1.68,1.68 2.72,3.28 3.592,5.52 0.657,1.69 1.44,4.23 1.653,8.91 0.23,5.06 0.28,6.58 0.28,19.39 0,12.81 -0.05,14.33 -0.28,19.39 -0.214,4.68 -0.996,7.22 -1.653,8.91 -0.87,2.24 -1.912,3.835 -3.592,5.514 -1.68,1.68 -3.275,2.72 -5.516,3.59 -1.69,0.66 -4.232,1.44 -8.912,1.654 -5.06,0.23 -6.58,0.28 -19.396,0.28 -12.817,0 -14.336,-0.05 -19.396,-0.28 -4.68,-0.216 -7.22,-0.998 -8.913,-1.655 -2.24,-0.87 -3.84,-1.91 -5.52,-3.59 -1.68,-1.68 -2.72,-3.276 -3.592,-5.517 -0.657,-1.69 -1.44,-4.23 -1.653,-8.91 -0.23,-5.06 -0.276,-6.58 -0.276,-19.398 0,-12.818 0.046,-14.33 0.276,-19.39 0.214,-4.68 0.996,-7.22 1.653,-8.912 0.87,-2.24 1.912,-3.84 3.592,-5.52 1.68,-1.68 3.28,-2.72 5.52,-3.592 1.692,-0.66 4.233,-1.44 8.913,-1.655 4.428,-0.2 6.144,-0.26 15.09,-0.27 z m 29.928,7.97 c -3.18,0 -5.76,2.577 -5.76,5.758 0,3.18 2.58,5.76 5.76,5.76 3.18,0 5.76,-2.58 5.76,-5.76 0,-3.18 -2.58,-5.76 -5.76,-5.76 z m -25.622,6.73 c -13.613,0 -24.65,11.037 -24.65,24.65 0,13.613 11.037,24.645 24.65,24.645 C 79.617,90.645 90.65,79.613 90.65,66 90.65,52.387 79.616,41.35 66.003,41.35 Z m 0,8.65 c 8.836,0 16,7.163 16,16 0,8.836 -7.164,16 -16,16 -8.837,0 -16,-7.164 -16,-16 0,-8.837 7.163,-16 16,-16 z"
     id="path1735"
     style="display:inline" />
</svg>
