<?xml version="1.0" encoding="UTF-8" standalone="no"?>
<!-- Created with Inkscape (http://www.inkscape.org/) -->

<svg
   xmlns:dc="http://purl.org/dc/elements/1.1/"
   xmlns:cc="http://creativecommons.org/ns#"
   xmlns:rdf="http://www.w3.org/1999/02/22-rdf-syntax-ns#"
   xmlns:svg="http://www.w3.org/2000/svg"
   xmlns="http://www.w3.org/2000/svg"
   xmlns:sodipodi="http://sodipodi.sourceforge.net/DTD/sodipodi-0.dtd"
   xmlns:inkscape="http://www.inkscape.org/namespaces/inkscape"
   width="116.69055mm"
   height="47.141182mm"
   viewBox="0 0 116.69055 47.141182"
   version="1.1"
   id="svg8093"
   inkscape:version="0.92.3 (2405546, 2018-03-11)"
   sodipodi:docname="yellow.svf.svg">
  <defs
     id="defs8087" />
  <sodipodi:namedview
     id="base"
     pagecolor="#ffffff"
     bordercolor="#666666"
     borderopacity="1.0"
     inkscape:pageopacity="0.0"
     inkscape:pageshadow="2"
     inkscape:zoom="1.979899"
     inkscape:cx="195.14102"
     inkscape:cy="47.311309"
     inkscape:document-units="mm"
     inkscape:current-layer="layer1"
     showgrid="false"
     fit-margin-top="0"
     fit-margin-left="0"
     fit-margin-right="0"
     fit-margin-bottom="0"
     inkscape:window-width="1280"
     inkscape:window-height="961"
     inkscape:window-x="-8"
     inkscape:window-y="-8"
     inkscape:window-maximized="1"
     showguides="false" />
  <metadata
     id="metadata8090">
    <rdf:RDF>
      <cc:Work
         rdf:about="">
        <dc:format>image/svg+xml</dc:format>
        <dc:type
           rdf:resource="http://purl.org/dc/dcmitype/StillImage" />
        <dc:title></dc:title>
      </cc:Work>
    </rdf:RDF>
  </metadata>
  <g
     inkscape:label="Layer 1"
     inkscape:groupmode="layer"
     id="layer1"
     transform="translate(-23.614164,-90.873487)">
    <g
       aria-label="Left"
       transform="translate(1.3229167,-2.2678571)"
       style="font-style:normal;font-weight:normal;font-size:9.87777805px;line-height:1.25;font-family:sans-serif;letter-spacing:3.93700099px;word-spacing:0px;fill:#000000;fill-opacity:1;stroke:none;stroke-width:0.35377944"
       id="text8725" />
    <g
       id="g8945"
       style="stroke:#ffff00;stroke-opacity:1">
      <path
         sodipodi:nodetypes="ccc"
         inkscape:connector-curvature="0"
         id="path8677"
         d="m 24.60625,101.54851 c 27.192224,-3.785259 49.025801,11.70273 51.979769,32.34563 0.401002,1.28046 0.489401,2.62916 0.747909,3.94012"
         style="fill:none;stroke:#ffff00;stroke-width:1.86500001;stroke-linecap:butt;stroke-linejoin:miter;stroke-miterlimit:4;stroke-dasharray:none;stroke-opacity:1" />
      <path
         style="fill:none;stroke:#ffff00;stroke-width:1.86500001;stroke-linecap:butt;stroke-linejoin:miter;stroke-miterlimit:4;stroke-dasharray:none;stroke-opacity:1"
         d="m 85.188436,137.83426 c 0.25851,-1.31096 0.34691,-2.65966 0.74792,-3.94012 2.95398,-20.6429 24.787614,-36.130889 51.979964,-32.34563"
         id="path8739"
         inkscape:connector-curvature="0"
         sodipodi:nodetypes="ccc" />
      <path
         inkscape:connector-curvature="0"
         id="path8882"
         d="m 24.60625,101.54851 6.756323,7.22879"
         style="fill:none;stroke:#ffff00;stroke-width:1.96500003;stroke-linecap:round;stroke-linejoin:miter;stroke-miterlimit:4;stroke-dasharray:none;stroke-opacity:1" />
      <path
         style="fill:none;stroke:#ffff00;stroke-width:1.96500003;stroke-linecap:round;stroke-linejoin:miter;stroke-miterlimit:4;stroke-dasharray:none;stroke-opacity:1"
         d="m 24.60625,101.54851 6.756323,-7.228794"
         id="path8884"
         inkscape:connector-curvature="0" />
      <path
         style="fill:none;stroke:#ffff00;stroke-width:1.96500003;stroke-linecap:round;stroke-linejoin:miter;stroke-miterlimit:4;stroke-dasharray:none;stroke-opacity:1"
         d="m 139.31263,101.54851 -6.75633,7.22879"
         id="path8886"
         inkscape:connector-curvature="0" />
      <path
         inkscape:connector-curvature="0"
         id="path8888"
         d="M 139.31263,101.54851 132.5563,94.319716"
         style="fill:none;stroke:#ffff00;stroke-width:1.96500003;stroke-linecap:round;stroke-linejoin:miter;stroke-miterlimit:4;stroke-dasharray:none;stroke-opacity:1" />
    </g>
    <g
       aria-label=" Right"
       transform="translate(-3.7041668,-2.6458334)"
       style="font-style:normal;font-weight:normal;font-size:9.87777805px;line-height:1.25;font-family:sans-serif;letter-spacing:2.77018738px;word-spacing:0px;fill:#ffff00;fill-opacity:0.94472361;stroke:none;stroke-width:0.26458332"
       id="text8912">
      <g
         id="g8960"
         style="fill:#ffff00;fill-opacity:0.94472361">
        <path
           id="path8918"
           style="font-style:normal;font-weight:normal;font-size:9.87777805px;line-height:1.25;font-family:sans-serif;letter-spacing:3.93700099px;word-spacing:0px;fill:#ffff00;fill-opacity:0.94472361;stroke:none;stroke-width:0.35377944"
           d="m 48.147492,101.17606 -4.42135,-1.04598 1.653358,-6.988736 0.929328,0.219855 -1.457931,6.162668 3.492022,0.826123 z"
           transform="translate(5.0270836,0.37797548)" />
        <path
           id="path8920"
           style="font-style:normal;font-weight:normal;font-size:9.87777805px;line-height:1.25;font-family:sans-serif;letter-spacing:3.93700099px;word-spacing:0px;fill:#ffff00;fill-opacity:0.94472361;stroke:none;stroke-width:0.35377944"
           d="m 58.234353,102.45449 -3.604048,-1.66352 q -0.208192,0.45106 -0.228077,0.85091 -0.01786,0.39548 0.119568,0.7192 0.130695,0.31531 0.393104,0.56392 0.266789,0.25063 0.643396,0.42446 0.499225,0.23043 1.093786,0.26582 0.600961,0.033 0.904476,-0.0606 l 0.04379,0.0202 -0.414363,0.89772 q -0.496872,-0.0169 -0.984983,-0.0987 -0.488111,-0.0819 -0.96544,-0.30219 -1.217406,-0.56192 -1.597362,-1.53411 -0.377935,-0.97657 0.18196,-2.1896 0.553832,-1.199892 1.531753,-1.603765 0.9823,-0.401852 2.050815,0.09134 0.98969,0.45681 1.257138,1.281454 0.271827,0.82667 -0.219344,1.8908 z m -0.510322,-1.0005 q 0.294771,-0.65013 0.134437,-1.15442 -0.155954,-0.502265 -0.812828,-0.805457 -0.661253,-0.305214 -1.235272,-0.09738 -0.569639,0.209851 -0.888998,0.763641 z"
           transform="translate(5.0270836,0.37797548)" />
        <path
           id="path8922"
           style="font-style:normal;font-weight:normal;font-size:9.87777805px;line-height:1.25;font-family:sans-serif;letter-spacing:3.93700099px;word-spacing:0px;fill:#ffff00;fill-opacity:0.94472361;stroke:none;stroke-width:0.35377944"
           d="m 68.214672,104.15475 -0.03902,-0.0283 q -0.09546,-0.12299 -0.265073,-0.29984 -0.166775,-0.18074 -0.315065,-0.28845 -0.472189,-0.34297 -0.839879,-0.28813 -0.360954,0.0538 -0.757775,0.6001 l -0.107709,0.14829 1.322908,0.96087 -0.447841,0.61658 -1.299493,-0.94387 -2.718224,3.74239 -0.733648,-0.53288 2.718224,-3.74238 -0.495603,-0.35998 0.447841,-0.61657 0.495603,0.35997 0.104874,-0.14439 q 0.564052,-0.77657 1.250839,-0.90962 0.68962,-0.13694 1.419366,0.3931 0.24585,0.17857 0.423962,0.3437 0.182015,0.16797 0.32324,0.31824 z"
           transform="translate(5.0270836,0.37797548)" />
        <path
           id="path8924"
           style="font-style:normal;font-weight:normal;font-size:9.87777805px;line-height:1.25;font-family:sans-serif;letter-spacing:3.93700099px;word-spacing:0px;fill:#ffff00;fill-opacity:0.94472361;stroke:none;stroke-width:0.35377944"
           d="m 69.867205,114.80737 q -0.224148,-0.14022 -0.463711,-0.33211 -0.236262,-0.18838 -0.397967,-0.36073 -0.564317,-0.60147 -0.534426,-1.21813 0.02989,-0.61666 0.743919,-1.28658 l 2.089325,-1.96025 -0.419112,-0.44671 0.555746,-0.52142 0.419113,0.44671 1.129079,-1.05933 0.620419,0.66127 -1.12908,1.05933 1.280437,1.36474 -0.555746,0.52142 -1.280438,-1.36475 -1.790347,1.67975 q -0.30953,0.29041 -0.472199,0.46949 -0.159151,0.17577 -0.231196,0.40209 -0.06809,0.20939 -0.0095,0.40575 0.06539,0.19658 0.326099,0.47445 0.151804,0.1618 0.362535,0.29477 0.214248,0.12967 0.318507,0.17735 l 0.033,0.0352 z"
           transform="translate(5.0270836,0.37797548)" />
        <path
           id="path8927"
           style="font-size:9.87777805px;letter-spacing:2.77018738px;stroke-width:0.26458332;fill:#ffff00;fill-opacity:0.94472361"
           d="m 97.362354,112.32177 -0.843581,0.90821 -3.726705,-0.18332 -0.915794,0.98596 2.092062,1.94319 -0.649919,0.69971 -5.261959,-4.88752 1.368768,-1.47363 q 0.443126,-0.47708 0.802153,-0.73604 0.355494,-0.26225 0.750853,-0.36898 0.446104,-0.11885 0.869456,-0.0218 0.4231,0.0902 0.843633,0.48079 0.568956,0.52847 0.688274,1.1725 0.115784,0.64075 -0.155955,1.32309 z m -5.301019,-1.876 q -0.226168,-0.21007 -0.474825,-0.28963 -0.248907,-0.0864 -0.539745,-0.0142 -0.243627,0.0568 -0.476162,0.22916 -0.236069,0.16911 -0.498662,0.45182 l -0.764803,0.8234 1.986045,1.84472 0.656483,-0.70678 q 0.308547,-0.33219 0.481774,-0.63208 0.169693,-0.30317 0.171506,-0.62404 -7.14e-4,-0.29689 -0.122613,-0.54835 -0.122151,-0.25828 -0.418998,-0.534 z" />
        <path
           id="path8929"
           style="font-size:9.87777805px;letter-spacing:2.77018738px;stroke-width:0.26458332;fill:#ffff00;fill-opacity:0.94472361"
           d="m 97.355656,104.45785 -0.82393,0.60552 -0.556964,-0.75786 0.82393,-0.60552 z m 3.677874,5.10222 -0.73065,0.53697 -3.190403,-4.34118 0.730655,-0.53697 z" />
        <path
           id="path8931"
           style="font-size:9.87777805px;letter-spacing:2.77018738px;stroke-width:0.26458332;fill:#ffff00;fill-opacity:0.94472361"
           d="m 108.50938,104.5137 q 0.61858,1.22213 0.35315,2.07545 -0.26544,0.85332 -1.41872,1.43705 -0.383,0.19386 -0.77709,0.32305 -0.38762,0.13133 -0.79059,0.21096 l -0.4182,-0.82624 0.043,-0.0218 q 0.23716,-0.0227 0.72412,-0.12866 0.48914,-0.10162 0.91947,-0.31943 0.41311,-0.2091 0.63412,-0.4453 0.22102,-0.2362 0.28233,-0.48887 0.0657,-0.24406 0.0104,-0.51342 -0.0553,-0.26935 -0.20336,-0.56197 l -0.22217,-0.43894 q -0.21767,0.47776 -0.47927,0.79397 -0.25947,0.30972 -0.77587,0.5711 -0.86066,0.43562 -1.6821,0.073 -0.81931,-0.36914 -1.39216,-1.50091 -0.31365,-0.61967 -0.36804,-1.15434 -0.0523,-0.54115 0.0834,-1.02067 0.12507,-0.44711 0.44033,-0.81751 0.31308,-0.3747 0.70899,-0.57508 0.41742,-0.21128 0.7407,-0.26679 0.3254,-0.062 0.72666,-0.0489 l -0.0529,-0.23269 0.75738,-0.38335 z m -1.20109,-0.36511 -1.32647,-2.62071 q -0.39681,0.017 -0.70702,0.0984 -0.30808,0.0748 -0.58349,0.21425 -0.66701,0.33761 -0.82348,0.979 -0.15647,0.6414 0.2748,1.49345 0.40948,0.80902 0.90478,1.08269 0.4953,0.27366 1.1537,-0.0596 0.35287,-0.17861 0.63822,-0.49062 0.28748,-0.31849 0.46896,-0.69685 z" />
        <path
           id="path8933"
           style="font-size:9.87777805px;letter-spacing:2.77018738px;stroke-width:0.26458332;fill:#ffff00;fill-opacity:0.94472361"
           d="m 117.401,102.15416 -0.8718,0.2493 -0.84338,-2.949297 q -0.10211,-0.357069 -0.23269,-0.65583 -0.13191,-0.303399 -0.29359,-0.447789 -0.17163,-0.161613 -0.4161,-0.192033 -0.2458,-0.03506 -0.5936,0.0644 -0.35706,0.102108 -0.6962,0.389713 -0.33914,0.287606 -0.61797,0.663312 l 1.10594,3.867476 -0.8718,0.2493 -2.06337,-7.215574 0.8718,-0.249302 0.74658,2.610776 q 0.31128,-0.455214 0.69281,-0.769992 0.38153,-0.314779 0.84062,-0.44606 0.83935,-0.240018 1.42443,0.139466 0.58508,0.379484 0.85692,1.330122 z" />
        <path
           id="path8935"
           style="font-size:9.87777805px;letter-spacing:2.77018738px;stroke-width:0.26458332;fill:#ffff00;fill-opacity:0.94472361"
           d="m 124.64611,100.94655 q -0.24522,0.0989 -0.5413,0.17981 -0.29129,0.0803 -0.52578,0.1098 -0.81832,0.10281 -1.29954,-0.28396 -0.48122,-0.38676 -0.60327,-1.358217 l -0.35711,-2.842598 -0.60776,0.07635 -0.095,-0.756112 0.60776,-0.07635 -0.19298,-1.536151 0.89968,-0.113025 0.19298,1.536152 1.85678,-0.233264 0.095,0.756112 -1.85678,0.233263 0.30601,2.435829 q 0.0529,0.421126 0.10211,0.657997 0.0486,0.232086 0.1893,0.423434 0.12933,0.17819 0.3226,0.24627 0.19746,0.0627 0.57551,0.0152 0.22014,-0.0277 0.4516,-0.11992 0.23086,-0.0971 0.33073,-0.15336 l 0.0478,-0.006 z" />
      </g>
    </g>
  </g>
</svg>
